# xmcd
#
# Track frame offsets:
#	150
#	13538
#	28625
#	44327
#	56367
#	77273
#	90971
#	103005
#	116265
#	130336
#	143112
#
# Disc length: 2206 seconds
#
# Revision: 1
# Processed by: cddbd v1.5.2PL0 Copyright (c) Steve Scherf et al.
# Submitted via: audiograbber 1.83.01
#
DISCID=7a089c0b
DTITLE=Jessica Lea Mayfield - Sorry is Gone
DYEAR=2017
DGENRE=Country
TTITLE0=Wish You Could See Me Now
TTITLE1=Sorry is Gone
TTITLE2=Meadow
TTITLE3=Maybe Whatever
TTITLE4=Soaked Through
TTITLE5=Safe 2 Connect 2
TTITLE6=Bum Me Out
TTITLE7=WTF
TTITLE8=Offa My Hands
TTITLE9=World Won't Stop
TTITLE10=Too Much Terrible
EXTD=
EXTT0=
EXTT1=
EXTT2=
EXTT3=
EXTT4=
EXTT5=
EXTT6=
EXTT7=
EXTT8=
EXTT9=
EXTT10=
PLAYORDER=
